HIERARCHY
ROOT pelvis
{
	OFFSET 0.000000 0.934615 -0.000000
	CHANNELS 6 Xposition Yposition Zposition Xrotation Yrotation Zrotation
	JOINT spine
	{
		OFFSET 0.000000 0.000000 0.000000
		CHANNELS 6 Xposition Yposition Zposition Xrotation Yrotation Zrotation
		JOINT spine.001
		{
			OFFSET 0.000000 0.306285 0.016052
			CHANNELS 3 Xrotation Yrotation Zrotation
			JOINT neck
			{
				OFFSET 0.000000 0.304419 -0.037378
				CHANNELS 6 Xposition Yposition Zposition Xrotation Yrotation Zrotation
				JOINT face
				{
					OFFSET 0.000000 0.239431 -0.004179
					CHANNELS 6 Xposition Yposition Zposition Xrotation Yrotation Zrotation
					End Site
					{
						OFFSET 0.000000 -0.009389 0.034046
					}
				}
			}
			JOINT shoulder.L
			{
				OFFSET 0.000000 0.304419 -0.037378
				CHANNELS 6 Xposition Yposition Zposition Yrotation Xrotation Zrotation
				JOINT upper_arm.L
				{
					OFFSET 0.191014 0.000000 0.000000
					CHANNELS 6 Xposition Yposition Zposition Xrotation Yrotation Zrotation
					JOINT forearm.L
					{
						OFFSET 0.324055 0.001157 -0.000140
						CHANNELS 6 Xposition Yposition Zposition Xrotation Yrotation Zrotation
						End Site
						{
							OFFSET 0.265980 -0.001592 0.004515
						}
					}
				}
			}
			JOINT shoulder.R
			{
				OFFSET 0.000000 0.304419 -0.037378
				CHANNELS 6 Xposition Yposition Zposition Yrotation Xrotation Zrotation
				JOINT upper_arm.R
				{
					OFFSET -0.191014 0.000000 0.000000
					CHANNELS 6 Xposition Yposition Zposition Xrotation Yrotation Zrotation
					JOINT forearm.R
					{
						OFFSET -0.317080 0.001157 -0.000140
						CHANNELS 6 Xposition Yposition Zposition Xrotation Yrotation Zrotation
						End Site
						{
							OFFSET -0.278224 -0.001593 0.004728
						}
					}
				}
			}
		}
	}
	JOINT pelvis.L
	{
		OFFSET 0.000000 0.000000 0.000000
		CHANNELS 6 Xposition Yposition Zposition Yrotation Xrotation Zrotation
		End Site
		{
			OFFSET 0.115934 0.000000 0.000000
		}
	}
	JOINT pelvis.R
	{
		OFFSET 0.000000 0.000000 0.000000
		CHANNELS 6 Xposition Yposition Zposition Yrotation Xrotation Zrotation
		End Site
		{
			OFFSET -0.115934 0.000000 0.000000
		}
	}
	JOINT thigh.L
	{
		OFFSET 0.115934 0.000000 0.000000
		CHANNELS 6 Xposition Yposition Zposition Xrotation Yrotation Zrotation
		JOINT shin.L
		{
			OFFSET 0.022477 -0.428883 0.000000
			CHANNELS 6 Xposition Yposition Zposition Xrotation Yrotation Zrotation
			JOINT foot.L
			{
				OFFSET 0.022046 -0.420658 0.000000
				CHANNELS 6 Xposition Yposition Zposition Xrotation Yrotation Zrotation
				End Site
				{
					OFFSET 0.018737 -0.080221 0.191039
				}
			}
		}
	}
	JOINT thigh.R
	{
		OFFSET -0.115934 0.000000 0.000000
		CHANNELS 6 Xposition Yposition Zposition Xrotation Yrotation Zrotation
		JOINT shin.R
		{
			OFFSET -0.022068 -0.421084 0.000000
			CHANNELS 6 Xposition Yposition Zposition Xrotation Yrotation Zrotation
			JOINT foot.R
			{
				OFFSET -0.022553 -0.430331 0.000000
				CHANNELS 6 Xposition Yposition Zposition Xrotation Yrotation Zrotation
				End Site
				{
					OFFSET -0.019511 -0.083538 0.198938
				}
			}
		}
	}
}
MOTION
Frames: 9
Frame Time: 0.041667
0.061042 -0.022097 0.064985 -0.000000 0.265226 -0.000000 0.000000 -0.000000 0.000000 -10.599131 0.228880 -1.568931 10.009911 3.044728 -0.374205 -0.000000 0.304419 -0.037378 20.316714 11.478932 -4.192676 -0.000000 0.239431 -0.004179 3.687266 -0.000005 0.000001 -0.000000 0.304420 -0.037378 0.116803 -0.000970 0.951512 0.191014 -0.000000 0.000000 -0.235010 -0.220319 -82.487880 0.324055 0.001157 -0.000140 -2.500312 -18.898693 -15.805949 -0.000000 0.304419 -0.037378 0.110142 -0.000861 0.897518 -0.191014 0.000000 -0.000000 -1.827492 2.168001 79.373369 -0.317080 0.001157 -0.000140 -1.942071 15.366211 15.574401 0.000000 0.000000 0.000000 0.000033 0.000000 -1.814005 0.000000 0.000000 0.000000 0.000000 0.000000 -1.813979 0.115876 -0.003670 0.000000 7.884786 0.117199 -4.299537 0.022477 -0.428883 0.000000 1.764338 0.120330 1.802462 0.022046 -0.420658 0.000000 -9.196869 3.745546 2.865721 -0.115876 0.003670 0.000000 7.949918 -0.490216 -1.045848 -0.022068 -0.421084 0.000000 1.730591 -0.157832 -4.421022 -0.022553 -0.430331 0.000000 -9.585061 -7.460881 -4.842789 
0.063350 -0.019869 0.065470 -0.000000 -0.023466 0.000000 -0.000000 -0.000000 0.000000 -10.737756 0.191376 -1.300843 10.012418 3.392375 -0.417019 0.000000 0.304419 -0.037378 20.351833 11.259693 -4.261637 -0.000000 0.239431 -0.004179 3.837438 -0.000004 0.000005 0.000000 0.304419 -0.037378 0.010267 -0.000004 0.083997 0.191014 0.000000 -0.000000 -1.040440 -1.170393 -81.327302 0.324055 0.001157 -0.000140 -2.386276 -17.456405 -16.530612 0.000000 0.304419 -0.037378 0.003691 0.000003 0.029968 -0.191014 0.000000 -0.000000 -1.988614 2.337411 79.987908 -0.317080 0.001157 -0.000140 -1.792634 14.796270 14.998329 0.000000 0.000000 0.000000 0.000007 0.000000 -1.363906 0.000000 0.000000 0.000000 -0.000000 0.000000 -1.363877 0.115901 -0.002760 0.000000 8.257245 0.080974 -4.878227 0.022477 -0.428883 0.000000 1.235730 0.091902 2.506110 0.022046 -0.420658 0.000000 -9.452725 3.971316 3.019879 -0.115902 0.002759 -0.000000 7.848709 -0.503117 -1.324081 -0.022068 -0.421084 0.000000 1.866256 -0.166437 -4.191532 -0.022553 -0.430331 0.000000 -9.546450 -7.562722 -4.888042 
0.064786 -0.018495 0.065492 -0.000000 -0.168909 0.000000 -0.000000 -0.000000 0.000000 -10.801266 0.160516 -1.086920 10.014422 3.668360 -0.451045 0.000000 0.304419 -0.037378 20.449421 11.115877 -4.407373 -0.000000 0.239431 -0.004179 3.823820 0.000002 -0.000003 0.000000 0.304420 -0.037378 -0.068397 -0.000327 -0.556611 0.191014 0.000000 -0.000000 -1.539282 -1.780498 -80.545101 0.324055 0.001157 -0.000140 -2.316833 -16.613530 -16.996002 0.000000 0.304419 -0.037378 -0.074997 -0.000396 -0.610568 -0.191014 0.000000 -0.000000 -2.072799 2.413428 80.558639 -0.317080 0.001157 -0.000140 -1.677865 14.515202 14.329009 -0.000000 0.000000 0.000000 0.000033 0.000001 -1.095961 0.000000 0.000000 0.000000 0.000000 0.000000 -1.095961 0.115913 -0.002218 0.000000 8.469721 0.052759 -5.287445 0.022477 -0.428883 0.000000 0.900717 0.071111 3.027733 0.022046 -0.420658 0.000000 -9.749332 4.022996 3.091098 -0.115913 0.002217 0.000000 7.772031 -0.509375 -1.488119 -0.022068 -0.421084 0.000000 1.965953 -0.172764 -4.043034 -0.022553 -0.430331 0.000000 -9.515306 -7.701672 -4.953711 
0.065147 -0.018125 0.065187 -0.000000 -0.156963 0.000000 -0.000000 -0.000000 0.000000 -10.808269 0.140131 -0.948467 10.016102 3.873567 -0.476346 -0.000000 0.304419 -0.037378 20.625204 11.046039 -4.598812 -0.000000 0.239431 -0.004179 3.640682 -0.000005 0.000002 -0.000000 0.304419 -0.037378 -0.116073 -0.000955 -0.944670 0.191014 -0.000000 -0.000000 -1.705576 -1.992188 -80.156867 0.324055 0.001157 -0.000140 -2.302323 -16.350955 -17.206322 -0.000000 0.304419 -0.037378 -0.122675 -0.001066 -0.998663 -0.191014 0.000000 0.000000 -2.065741 2.382513 81.081531 -0.317080 0.001157 -0.000140 -1.596788 14.490274 13.636088 -0.000000 0.000000 0.000000 0.000041 0.000001 -1.037272 -0.000000 0.000000 0.000000 -0.000000 0.000000 -1.037272 0.115915 -0.002099 0.000000 8.573131 0.037312 -5.502171 0.022477 -0.428883 0.000000 0.705156 0.057641 3.345598 0.022046 -0.420658 0.000000 -10.057084 3.929900 3.088745 -0.115915 0.002099 0.000000 7.745080 -0.509898 -1.521858 -0.022068 -0.421084 0.000000 2.008932 -0.175571 -3.988209 -0.022553 -0.430331 0.000000 -9.554184 -7.836765 -5.030698 
0.064811 -0.018333 0.065045 -0.000000 -0.098125 0.000000 0.000000 -0.000000 0.000000 -10.822783 0.128847 -0.871357 10.017656 4.055028 -0.498745 0.000000 0.304419 -0.037378 20.807476 10.960036 -4.742010 0.000000 0.239431 -0.004179 3.433480 -0.000012 0.000003 0.000000 0.304420 -0.037378 -0.145288 -0.001496 -1.183272 0.191014 0.000000 -0.000000 -1.688577 -1.979800 -79.935261 0.324055 0.001157 -0.000140 -2.317597 -16.298107 -17.389978 0.000000 0.304420 -0.037378 -0.151921 -0.001638 -1.237266 -0.191014 0.000000 0.000000 -2.030172 2.321976 81.523342 -0.317080 0.001157 -0.000140 -1.538445 14.478633 13.128136 0.000000 0.000000 0.000000 -0.000029 -0.000001 -1.086739 0.000000 0.000000 0.000000 0.000000 0.000000 -1.086739 0.115913 -0.002199 0.000000 8.714425 0.029940 -5.607028 0.022477 -0.428883 0.000000 0.478697 0.040035 3.560793 0.022046 -0.420658 0.000000 -10.316015 3.844284 3.082533 -0.115914 0.002199 0.000000 7.770309 -0.509217 -1.487443 -0.022068 -0.421084 0.000000 1.999658 -0.174768 -3.988694 -0.022553 -0.430331 0.000000 -9.684911 -7.891385 -5.083942 
0.064215 -0.018664 0.065246 -0.000000 -0.106604 0.000000 -0.000000 -0.000000 0.000000 -10.862828 0.123180 -0.831028 10.019334 4.237361 -0.521233 0.000000 0.304419 -0.037378 20.892154 10.770295 -4.794194 -0.000000 0.239431 -0.004179 3.342050 0.000006 -0.000002 0.000000 0.304419 -0.037378 -0.163432 -0.001892 -1.330566 0.191014 -0.000000 -0.000000 -1.640452 -1.927823 -79.768031 0.324055 0.001157 -0.000140 -2.342274 -16.333269 -17.535654 0.000000 0.304419 -0.037378 -0.170007 -0.002048 -1.384559 -0.191014 -0.000000 -0.000000 -2.030543 2.310841 81.799104 -0.317080 0.001157 -0.000140 -1.500579 14.350661 12.928500 -0.000000 0.000000 0.000000 0.000033 0.000001 -1.135942 -0.000000 0.000000 0.000000 0.000000 -0.000000 -1.135942 0.115912 -0.002298 0.000000 8.939754 0.024117 -5.691449 0.022477 -0.428883 0.000000 0.157705 0.013493 3.778748 0.022046 -0.420658 0.000000 -10.489172 3.846623 3.109619 -0.115912 0.002298 0.000000 7.817549 -0.509589 -1.447606 -0.022068 -0.421084 0.000000 1.965272 -0.172029 -4.004061 -0.022553 -0.430331 0.000000 -9.814860 -7.856117 -5.090659 
0.063583 -0.018883 0.065583 -0.000000 -0.221249 0.000000 -0.000000 -0.000000 0.000000 -10.906160 0.118068 -0.794444 10.021045 4.429288 -0.544952 -0.000000 0.304419 -0.037378 20.881106 10.498828 -4.808628 0.000000 0.239431 -0.004179 3.372023 -0.000002 -0.000002 0.000000 0.304419 -0.037378 -0.171350 -0.002088 -1.395622 0.191014 -0.000000 -0.000000 -1.644960 -1.934580 -79.729304 0.324055 0.001157 -0.000140 -2.360576 -16.562939 -17.388430 0.000000 0.304419 -0.037378 -0.177990 -0.002250 -1.449617 -0.191014 -0.000000 0.000000 -2.056421 2.337607 81.879249 -0.317080 0.001157 -0.000140 -1.484650 14.192312 12.958765 -0.000000 0.000000 0.000000 0.000026 0.000001 -1.135352 -0.000000 0.000000 0.000000 0.000000 -0.000000 -1.135353 0.115912 -0.002297 0.000000 9.180166 0.015775 -5.803477 0.022477 -0.428883 0.000000 -0.183966 -0.016172 4.050087 0.022046 -0.420658 0.000000 -10.578689 3.930983 3.167613 -0.115912 0.002297 0.000000 7.845012 -0.509865 -1.425528 -0.022068 -0.421084 0.000000 1.944926 -0.170466 -4.016826 -0.022553 -0.430331 0.000000 -9.846873 -7.781262 -5.058010 
0.062982 -0.018895 0.065952 -0.000000 -0.439764 0.000000 -0.000000 -0.000000 0.000000 -10.952285 0.107220 -0.719461 10.023404 4.661455 -0.573624 -0.000000 0.304419 -0.037378 20.885795 10.251848 -4.880145 0.000000 0.239431 -0.004179 3.440842 0.000002 -0.000005 0.000000 0.304420 -0.037378 -0.175440 -0.002187 -1.428655 0.191014 -0.000000 -0.000000 -1.745158 -2.050479 -79.863421 0.324055 0.001157 -0.000140 -2.336695 -16.865330 -16.845087 0.000000 0.304420 -0.037378 -0.182067 -0.002355 -1.482685 -0.191014 -0.000000 -0.000000 -2.036650 2.315116 81.868293 -0.317080 0.001157 -0.000140 -1.486695 14.142319 13.033399 -0.000000 0.000000 0.000000 0.000029 0.000001 -1.082703 0.000000 0.000000 0.000000 0.000000 -0.000000 -1.082703 0.115914 -0.002191 0.000000 9.380338 0.003498 -5.957326 0.022477 -0.428883 0.000000 -0.454517 -0.041221 4.364635 0.022046 -0.420658 0.000000 -10.635560 4.105503 3.268540 -0.115914 0.002191 0.000000 7.836329 -0.508891 -1.419570 -0.022068 -0.421084 0.000000 1.958079 -0.171742 -4.024121 -0.022553 -0.430331 0.000000 -9.802396 -7.673014 -4.993443 
0.062415 -0.018692 0.066516 -0.000000 -0.729144 0.000000 -0.000000 -0.000000 -0.000000 -11.025885 0.087641 -0.585536 10.026421 4.952258 -0.609594 -0.000000 0.304419 -0.037378 20.986198 10.049665 -5.047002 -0.000000 0.239431 -0.004179 3.492284 -0.000001 -0.000001 0.000000 0.304420 -0.037378 -0.184299 -0.002410 -1.501215 0.191014 0.000000 -0.000000 -1.944715 -2.282228 -80.065656 0.324055 0.001157 -0.000140 -2.246519 -16.886492 -16.151017 0.000000 0.304420 -0.037378 -0.190932 -0.002587 -1.555210 -0.191014 0.000000 0.000000 -1.922070 2.180328 81.911529 -0.317080 0.001157 -0.000140 -1.494846 14.229115 13.010926 -0.000000 0.000000 0.000000 0.000052 0.000001 -1.001240 -0.000000 0.000000 0.000000 0.000000 0.000000 -1.001240 0.115917 -0.002026 0.000000 9.543277 -0.011087 -6.132782 0.022477 -0.428883 0.000000 -0.614280 -0.057344 4.666971 0.022046 -0.420658 0.000000 -10.732378 4.362868 3.419770 -0.115917 0.002026 0.000000 7.821864 -0.508234 -1.423746 -0.022068 -0.421084 0.000000 1.978315 -0.173456 -4.020596 -0.022553 -0.430331 0.000000 -9.782565 -7.496700 -4.898373 
